<svg width="133" height="70" viewBox="0 0 133 70" fill="none" xmlns="http://www.w3.org/2000/svg">
<path fill-rule="evenodd" clip-rule="evenodd" d="M125.767 0.334886C135.552 2.36558 130.563 13.7925 127.217 18.0677C129.336 23.421 133.329 36.4696 132.347 45.8379C131.121 57.5482 118.741 56.656 113.388 55.6523C108.034 54.6485 100.805 52.3214 96.4356 41.7114C92.532 32.2317 97.5882 21.5622 100.897 16.5063C105.358 9.48009 113.945 -2.11858 125.767 0.334886ZM107.031 27.2133C106.852 33.7264 114.763 28.9605 118.741 25.7634C118.89 25.7634 118.897 27.7486 117.737 35.6892C116.287 45.615 105.179 41.8232 100.897 36.0238C95.6287 28.8896 101.917 18.8397 104.244 15.1206L104.354 14.9453C106.584 11.3764 117.179 -1.56071 124.206 2.00819C130.55 5.2307 128.109 11.8969 126.213 14.6107C126.176 14.3133 125.723 12.6255 124.206 8.25369C122.31 2.78887 118.295 4.46178 116.064 6.58079C113.834 8.6998 107.254 19.0718 107.031 27.2133ZM118.742 10.1487V20.9668C117.998 21.6731 115.797 23.2419 112.942 23.8665C113.835 20.8924 116.243 13.9852 118.742 10.1487Z" fill="url(#paint0_linear_369_6871)"/>
<path d="M73.4683 45.3859H79.4907V48.6863H79.6245C80.4275 47.3111 81.4685 46.318 82.7473 45.7068C84.0261 45.0651 85.3347 44.7442 86.673 44.7442C88.3683 44.7442 89.7512 44.9887 90.8218 45.4776C91.9222 45.936 92.7847 46.593 93.4093 47.4486C94.0338 48.2737 94.4651 49.2974 94.703 50.5198C94.9706 51.7116 95.1045 53.0409 95.1045 54.5077V66.0842C95.1045 67.741 93.7613 69.0842 92.1045 69.0842H88.7697V55.6995C88.7697 53.7437 88.4723 52.2922 87.8775 51.3449C87.2827 50.367 86.2269 49.8781 84.7102 49.8781C82.9852 49.8781 81.7361 50.4128 80.9629 51.4824C80.1896 52.5214 79.803 54.2479 79.803 56.6621V66.0842C79.803 67.741 78.4598 69.0842 76.803 69.0842H73.4683V45.3859Z" fill="#ED174D"/>
<path d="M54.0486 57.258C54.0486 58.2053 54.1378 59.1373 54.3163 60.0541C54.4947 60.9403 54.7921 61.7501 55.2085 62.4835C55.6546 63.1864 56.2345 63.7517 56.9483 64.1795C57.6621 64.6073 58.5543 64.8212 59.6249 64.8212C60.6956 64.8212 61.5878 64.6073 62.3016 64.1795C63.0451 63.7517 63.625 63.1864 64.0414 62.4835C64.4875 61.7501 64.7998 60.9403 64.9782 60.0541C65.1567 59.1373 65.2459 58.2053 65.2459 57.258C65.2459 56.3107 65.1567 55.3786 64.9782 54.4619C64.7998 53.5451 64.4875 52.7353 64.0414 52.0324C63.625 51.3296 63.0451 50.7643 62.3016 50.3364C61.5878 49.8781 60.6956 49.6489 59.6249 49.6489C58.5543 49.6489 57.6621 49.8781 56.9483 50.3364C56.2345 50.7643 55.6546 51.3296 55.2085 52.0324C54.7921 52.7353 54.4947 53.5451 54.3163 54.4619C54.1378 55.3786 54.0486 56.3107 54.0486 57.258ZM47.7139 57.258C47.7139 55.3633 47.9964 53.6521 48.5615 52.1241C49.1265 50.5656 49.9295 49.2516 50.9704 48.182C52.0114 47.0819 53.2605 46.2416 54.7178 45.661C56.175 45.0498 57.8108 44.7442 59.6249 44.7442C61.4391 44.7442 63.0748 45.0498 64.5321 45.661C66.0191 46.2416 67.2831 47.0819 68.324 48.182C69.3649 49.2516 70.1679 50.5656 70.733 52.1241C71.2981 53.6521 71.5806 55.3633 71.5806 57.258C71.5806 59.1526 71.2981 60.8639 70.733 62.3918C70.1679 63.9198 69.3649 65.2338 68.324 66.3339C67.2831 67.4035 66.0191 68.2285 64.5321 68.8092C63.0748 69.3898 61.4391 69.6801 59.6249 69.6801C57.8108 69.6801 56.175 69.3898 54.7178 68.8092C53.2605 68.2285 52.0114 67.4035 50.9704 66.3339C49.9295 65.2338 49.1265 63.9198 48.5615 62.3918C47.9964 60.8639 47.7139 59.1526 47.7139 57.258Z" fill="#ED174D"/>
<path d="M16.9075 57.2566C16.9075 56.2481 16.8034 55.2855 16.5952 54.3688C16.387 53.452 16.0599 52.6422 15.6138 51.9394C15.1677 51.2365 14.6026 50.6864 13.9186 50.2892C13.2643 49.8614 12.4613 49.6475 11.5096 49.6475C10.5876 49.6475 9.78462 49.8614 9.10059 50.2892C8.41656 50.6864 7.85149 51.2365 7.40538 51.9394C6.95928 52.6422 6.63213 53.452 6.42395 54.3688C6.21576 55.2855 6.11167 56.2481 6.11167 57.2566C6.11167 58.2344 6.21576 59.1818 6.42395 60.0985C6.63213 61.0153 6.95928 61.8251 7.40538 62.5279C7.85149 63.2308 8.41656 63.7961 9.10059 64.2239C9.78462 64.6212 10.5876 64.8198 11.5096 64.8198C12.4613 64.8198 13.2643 64.6212 13.9186 64.2239C14.6026 63.7961 15.1677 63.2308 15.6138 62.5279C16.0599 61.8251 16.387 61.0153 16.5952 60.0985C16.8034 59.1818 16.9075 58.2344 16.9075 57.2566ZM0 36.3544H6.33473V48.2723H6.42395C7.1972 47.05 8.23812 46.1638 9.5467 45.6137C10.885 45.0331 12.268 44.7428 13.6955 44.7428C14.8554 44.7428 16.0004 44.9873 17.1305 45.4762C18.2607 45.9651 19.2718 46.7138 20.1641 47.7223C21.086 48.7307 21.8295 50.0294 22.3946 51.6185C22.9597 53.177 23.2422 55.0411 23.2422 57.2107C23.2422 59.3804 22.9597 61.2597 22.3946 62.8488C21.8295 64.4073 21.086 65.6908 20.1641 66.6992C19.2718 67.7076 18.2607 68.4563 17.1305 68.9453C16.0004 69.4342 14.8554 69.6787 13.6955 69.6787C12.0003 69.6787 10.4835 69.4036 9.1452 68.8536C7.80688 68.3035 6.7957 67.3715 6.11167 66.0575H6.02245V69.0828H0V36.3544Z" fill="#ED174D"/>
<path fill-rule="evenodd" clip-rule="evenodd" d="M38.9591 50.9334C39.7324 51.789 40.2677 53.0419 40.5651 54.6921H30.26C30.2898 54.2337 30.379 53.7142 30.5277 53.1336C30.7061 52.553 30.9887 52.0029 31.3753 51.4834C31.7917 50.9639 32.327 50.5361 32.9813 50.2C33.6653 49.8333 34.5129 49.6499 35.5241 49.6499C37.0706 49.6499 38.2156 50.0777 38.9591 50.9334ZM31.8214 63.4013C30.8697 62.454 30.3492 60.9261 30.26 58.8175H46.8998C47.0188 56.984 46.8701 55.2269 46.4537 53.5461C46.0374 51.8654 45.3533 50.368 44.4016 49.054C43.4797 47.74 42.2901 46.701 40.8328 45.937C39.3755 45.1425 37.6654 44.7452 35.7025 44.7452C33.9478 44.7452 32.3419 45.0661 30.8846 45.7078C29.457 46.3496 28.2228 47.2358 27.1819 48.3664C26.141 49.4666 25.338 50.7806 24.7729 52.3085C24.2078 53.8364 23.9253 55.4866 23.9253 57.259C23.9253 59.0925 24.193 60.7733 24.7283 62.3012C25.2934 63.8291 26.0815 65.1431 27.0927 66.2433C28.1038 67.3434 29.3381 68.199 30.7953 68.8102C32.2526 69.3908 33.8884 69.6811 35.7025 69.6811C38.3197 69.6811 40.5502 69.0699 42.3941 67.8476C43.6558 67.0112 44.6947 65.7957 45.5108 64.201L40.7998 62.0892C40.5305 62.7012 40.0062 63.2913 39.2268 63.8597C38.3048 64.5014 37.2044 64.8223 35.9256 64.8223C34.1412 64.8223 32.7731 64.3486 31.8214 63.4013Z" fill="#ED174D"/>
<defs>
<linearGradient id="paint0_linear_369_6871" x1="121.228" y1="10.1489" x2="112.418" y2="48.2911" gradientUnits="userSpaceOnUse">
<stop stop-color="#ED174D"/>
<stop offset="0.391835" stop-color="#FA6739"/>
<stop offset="1" stop-color="#FDD725"/>
</linearGradient>
</defs>
</svg>
