<?xml version="1.0" encoding="utf-8"?>
<!-- Generator: Adobe Illustrator 27.5.0, SVG Export Plug-In . SVG Version: 6.00 Build 0)  -->
<svg version="1.1" id="Capa_1" xmlns="http://www.w3.org/2000/svg" xmlns:xlink="http://www.w3.org/1999/xlink" x="0px" y="0px"
	 viewBox="0 0 187 43" style="enable-background:new 0 0 187 43;" xml:space="preserve">
<style type="text/css">
	.st0{fill:#00A443;}
	.st1{fill:#FF9C1A;}
	.st2{fill:#0DA9FF;}
</style>
<g>
	<rect x="55.2" y="10.3" class="st0" width="3.3" height="22.3"/>
	<path class="st0" d="M73.8,17.2c-1.1-0.7-2.4-1.1-3.8-1.1c-1.2,0-2.2,0.2-3.1,0.7c-0.8,0.5-1.6,1.2-2.1,2c-0.1,0.2-0.2,0.3-0.3,0.5
		v-9h-3.1v22.3h3.1v-2.9c0.1,0.2,0.2,0.3,0.3,0.5c0.5,0.8,1.2,1.5,2.1,2c0.9,0.5,1.9,0.7,3.1,0.7c1,0,2-0.2,2.9-0.6
		c0.9-0.4,1.7-1,2.3-1.7c0.7-0.8,1.2-1.7,1.6-2.7c0.4-1.1,0.6-2.2,0.6-3.4c0-1.7-0.3-3.1-1-4.4C75.9,19,74.9,18,73.8,17.2z
		 M73.9,26.9c-0.2,0.7-0.6,1.3-1,1.8c-0.4,0.5-1,0.9-1.5,1.1c-0.6,0.3-1.3,0.4-2,0.4c-1.4,0-2.6-0.5-3.5-1.5c-0.9-1-1.4-2.4-1.4-4.1
		c0-0.8,0.1-1.6,0.4-2.4c0.2-0.6,0.6-1.2,1-1.8c0.4-0.5,1-0.9,1.5-1.1c0.6-0.2,1.3-0.4,1.9-0.4c1.4,0,2.6,0.5,3.5,1.5
		c0.9,1,1.4,2.4,1.4,4.1C74.3,25.4,74.1,26.2,73.9,26.9z"/>
	<path class="st0" d="M90.5,17.2c-1.2-0.7-2.5-1.1-3.9-1c-1.1,0-2.1,0.2-3.1,0.6c-0.9,0.4-1.8,1-2.5,1.7c-0.7,0.8-1.3,1.7-1.6,2.7
		c-0.4,1.1-0.6,2.3-0.6,3.5c0,1.7,0.3,3.2,1,4.4c0.6,1.2,1.6,2.3,2.8,3c1.2,0.7,2.7,1.1,4.1,1.1c0.9,0,1.8-0.1,2.7-0.4
		c0.9-0.3,1.7-0.7,2.4-1.3c0.8-0.7,1.4-1.5,1.9-2.3l-2.4-1.5c-0.3,0.6-0.7,1.2-1.2,1.6c-0.5,0.4-1,0.7-1.6,0.9
		c-0.6,0.2-1.2,0.3-1.9,0.3c-0.9,0-1.7-0.2-2.5-0.6c-0.7-0.5-1.3-1.1-1.7-1.9C82.2,27,82,26.1,82,25.3h12.1c0-0.1,0-0.3,0-0.4v-0.4
		c0-1.7-0.3-3.1-1-4.4C92.5,18.9,91.6,17.9,90.5,17.2z M83.2,20.3c0.4-0.5,0.9-0.9,1.5-1.1c0.6-0.3,1.3-0.4,1.9-0.4
		c1.2,0,2.4,0.5,3.1,1.4c0.6,0.7,1,1.6,1.1,2.8h-8.7c0-0.3,0.1-0.6,0.2-0.9C82.5,21.4,82.8,20.8,83.2,20.3L83.2,20.3z"/>
	<path class="st0" d="M104.6,16.1h-0.9c-0.9,0-1.8,0.2-2.6,0.7c-0.8,0.5-1.4,1.2-1.8,2.2v-2.7h-3.1v16.2h3.1V24
		c0-1.4,0.4-2.5,1.1-3.3c0.7-0.8,1.6-1.3,2.7-1.2h1.6V16.1z"/>
	<path class="st0" d="M117.4,19.4c-0.1-0.2-0.2-0.3-0.3-0.5c-0.5-0.8-1.3-1.5-2.1-2c-0.8-0.5-1.9-0.8-3.1-0.7c-1,0-2,0.2-3,0.6
		c-0.9,0.4-1.7,1-2.4,1.7c-0.7,0.8-1.2,1.7-1.6,2.7c-0.4,1.1-0.6,2.3-0.6,3.4c0,1.7,0.3,3.1,1,4.4c0.6,1.2,1.5,2.2,2.7,3
		c1.1,0.7,2.5,1.1,3.8,1.1c1.2,0,2.2-0.2,3.1-0.7c0.8-0.5,1.6-1.2,2.1-2c0.1-0.2,0.2-0.3,0.3-0.5v2.9h3.1V10.3h-3.1V19.4z
		 M116.2,28.7c-0.4,0.5-1,0.9-1.6,1.1c-0.6,0.3-1.3,0.4-2,0.4c-1.4,0-2.6-0.5-3.5-1.5c-0.9-1-1.4-2.4-1.4-4.1c0-0.8,0.1-1.6,0.4-2.4
		c0.2-0.6,0.6-1.2,1-1.8c0.4-0.5,1-0.9,1.5-1.1c0.6-0.3,1.3-0.4,2-0.4c1.4,0,2.6,0.5,3.5,1.5c0.9,1,1.4,2.4,1.4,4.1
		c0,0.8-0.1,1.6-0.4,2.3C116.9,27.6,116.6,28.2,116.2,28.7z"/>
	<path class="st0" d="M132,16.1H131c-0.9,0-1.8,0.2-2.6,0.7c-0.8,0.5-1.4,1.2-1.8,2.2v-2.7h-3.1v16.2h3.1V24c0-1.4,0.4-2.5,1.1-3.3
		c0.7-0.8,1.6-1.3,2.7-1.2h1.6V16.1z"/>
	<path class="st0" d="M144.4,17.2c-1.3-0.7-2.8-1.1-4.2-1.1c-1.1,0-2.2,0.2-3.3,0.6c-1,0.4-1.9,1-2.6,1.7c-0.8,0.8-1.3,1.7-1.7,2.7
		c-0.4,1.1-0.6,2.2-0.6,3.4c0,1.7,0.4,3.1,1.1,4.4c0.7,1.2,1.7,2.3,2.9,3c1.3,0.7,2.7,1.1,4.2,1.1c1.1,0,2.2-0.2,3.3-0.6
		c1-0.4,1.9-1,2.6-1.7c0.8-0.8,1.3-1.7,1.7-2.7c0.4-1.1,0.6-2.3,0.6-3.4c0-1.7-0.4-3.2-1.1-4.4C146.7,18.9,145.6,17.9,144.4,17.2z
		 M144.8,26.9c-0.2,0.7-0.6,1.3-1.1,1.8c-0.4,0.5-1,0.9-1.6,1.1c-0.6,0.3-1.3,0.4-2,0.4c-0.9,0-1.8-0.2-2.5-0.7
		c-0.8-0.5-1.4-1.1-1.8-1.9c-0.4-0.8-0.7-1.8-0.7-3c0-0.8,0.1-1.6,0.4-2.4c0.2-0.6,0.6-1.2,1-1.8c0.4-0.5,1-0.9,1.6-1.1
		c0.6-0.2,1.3-0.4,2-0.4c0.9,0,1.8,0.2,2.6,0.7c0.8,0.5,1.4,1.1,1.8,1.9c0.4,0.8,0.7,1.8,0.7,3C145.2,25.4,145.1,26.2,144.8,26.9
		L144.8,26.9z"/>
	<path class="st0" d="M153.7,29.4c-0.3-0.3-0.4-0.8-0.4-1.4V10.3h-3.1v17.9c0,0.8,0.1,1.6,0.5,2.3c0.3,0.7,0.8,1.2,1.5,1.6
		c0.7,0.4,1.6,0.6,2.4,0.6h1.8v-2.7h-1.3C154.5,29.9,154,29.8,153.7,29.4z"/>
	<path class="st0" d="M170.8,19.7c-0.4-0.8-0.9-1.5-1.6-2c-0.7-0.5-1.5-0.9-2.3-1.1c-0.9-0.2-1.8-0.4-2.7-0.4c-1.4,0-2.7,0.3-4,1
		c-1.2,0.7-2.1,1.7-2.6,3l2.5,1.4c0.3-0.8,0.8-1.4,1.5-1.9c0.7-0.4,1.5-0.7,2.5-0.7c0.7,0,1.4,0.1,2.1,0.4c0.6,0.2,1.2,0.7,1.5,1.2
		c0.4,0.6,0.6,1.3,0.6,2.3v1.8c-0.1-0.1-0.2-0.2-0.4-0.3c-1-0.9-2.4-1.3-4.3-1.3c-1.1,0-2.3,0.2-3.3,0.6c-0.9,0.3-1.7,0.9-2.4,1.7
		c-1.1,1.6-1.2,3.8,0,5.4c0.6,0.8,1.4,1.4,2.3,1.7c1,0.4,2.1,0.6,3.2,0.6c1.9,0,3.4-0.5,4.4-1.4c0.2-0.2,0.4-0.4,0.6-0.6v1.6h3V22.6
		C171.5,21.6,171.3,20.6,170.8,19.7z M167.3,29.9c-0.8,0.4-1.7,0.7-2.9,0.7c-1.2,0-2.1-0.2-2.9-0.7c-0.8-0.4-1.2-1.1-1.2-1.9
		c0-0.8,0.4-1.6,1.2-2c0.8-0.4,1.7-0.7,2.9-0.7c1.1,0,2.1,0.2,2.9,0.7c0.7,0.4,1.2,1.2,1.1,2C168.4,28.8,168,29.5,167.3,29.9
		L167.3,29.9z"/>
	<path class="st1" d="M25.7,24.7c0,2.6,1,5,2.8,6.9c3.5,3.5,8.2,3.5,11.2,1.8c3.7-2,12-8,3.4-33C43.2,12.2,25.7,13.4,25.7,24.7z"/>
	<path class="st2" d="M33.7,10.8c-0.6-3.1-1.5-6.2-2.9-10.3c0,11.8-17.4,13-17.4,24.3c0,2.6,1,5,2.8,6.9c3.5,3.5,8.3,3.5,11.2,1.8
		C20.5,26,22.9,17.5,33.7,10.8z"/>
	<path class="st0" d="M21.3,10.8c-0.6-3.1-1.5-6.2-2.9-10.3C18.4,12.2,1,13.4,1,24.7c0,5.8,4.7,8.3,4.7,8.3
		c-0.7,3.1-0.9,6.3-0.4,9.5l2.2-0.4c-1.1-3.8-0.4-8-0.4-8.4c2.9,1.1,5.8,0.8,7.9-0.4C8.1,26,10.6,17.5,21.3,10.8z"/>
</g>
</svg>
