<svg width="112" height="29" viewBox="0 0 112 29" fill="none" xmlns="http://www.w3.org/2000/svg">
<path fill-rule="evenodd" clip-rule="evenodd" d="M27.6302 14.5099C27.6302 17.1958 26.8338 19.8214 25.3416 22.0546C23.8494 24.2878 21.7285 26.0284 19.2471 27.0562C16.7656 28.0841 14.0352 28.353 11.4009 27.829C8.76663 27.305 6.34691 26.0116 4.44771 24.1124C2.54851 22.2132 1.25514 19.7935 0.731157 17.1593C0.20717 14.525 0.476098 11.7945 1.50394 9.31309C2.53177 6.83167 4.27236 4.71077 6.50558 3.21858C8.7388 1.72639 11.3644 0.929935 14.0502 0.929935C15.8339 0.92862 17.6004 1.27898 19.2486 1.96097C20.8968 2.64297 22.3944 3.64321 23.6557 4.90449C24.9169 6.16577 25.9172 7.66334 26.5992 9.31154C27.2812 10.9597 27.6315 12.7262 27.6302 14.5099" fill="#FDDD00"/>
<path fill-rule="evenodd" clip-rule="evenodd" d="M14.0499 27.0001C11.1611 27.0048 8.36024 26.0063 6.1258 24.1753C3.89137 22.3443 2.36196 19.7943 1.79882 16.9609C1.23568 14.1275 1.67375 11.1865 3.0382 8.64024C4.40265 6.09396 6.60883 4.10039 9.27989 3.00007C10.792 2.37288 12.4129 2.05005 14.0499 2.05005C15.6869 2.05005 17.3078 2.37288 18.8199 3.00007C21.0897 3.94665 23.0285 5.54374 24.3924 7.59017C25.7562 9.63659 26.4839 12.0408 26.4839 14.5001C26.4839 16.9593 25.7562 19.3635 24.3924 21.41C23.0285 23.4564 21.0897 25.0535 18.8199 26.0001C17.308 26.628 15.687 26.9509 14.0499 26.9501V27.0001ZM14.0499 26.5601C11.2684 26.5428 8.578 25.5661 6.43318 23.7949C4.28836 22.0237 2.82049 19.5667 2.27746 16.8386C1.73443 14.1105 2.14952 11.2786 3.45262 8.82114C4.75573 6.36366 6.867 4.43119 9.42989 3.35007C10.8944 2.74268 12.4644 2.43005 14.0499 2.43005C15.6354 2.43005 17.2053 2.74268 18.6699 3.35007C20.8777 4.26245 22.7651 5.80947 24.0931 7.79523C25.4211 9.78099 26.13 12.1162 26.13 14.5051C26.13 16.894 25.4211 19.2291 24.0931 21.2149C22.7651 23.2007 20.8777 24.7477 18.6699 25.6601C17.2058 26.269 15.6356 26.5817 14.0499 26.5801" fill="#8DC441"/>
<path fill-rule="evenodd" clip-rule="evenodd" d="M15.9999 26.5099C16.6309 26.4097 17.2529 26.2592 17.8599 26.0599C18.4637 25.8641 19.052 25.6234 19.6199 25.3399C20.1853 25.0495 20.7269 24.7151 21.2399 24.3399C21.7566 23.9673 22.2416 23.5525 22.6899 23.0999C23.1429 22.652 23.5577 22.1669 23.9299 21.6499C24.3087 21.1358 24.6433 20.5905 24.9299 20.0199C25.2201 19.4538 25.4642 18.8652 25.6599 18.2599C26.4422 15.8177 26.4422 13.1922 25.6599 10.7499C25.444 10.1479 25.1833 9.56297 24.8799 8.99993C24.5932 8.43252 24.2586 7.89057 23.8799 7.37993C23.5077 6.86291 23.0929 6.37789 22.6399 5.92993C22.1942 5.47455 21.709 5.05959 21.1899 4.68993C20.6793 4.31122 20.1373 3.97668 19.5699 3.68993C19.0011 3.41689 18.4128 3.18627 17.8099 2.99993C15.9841 2.41023 14.045 2.25948 12.1499 2.55993C11.5222 2.65563 10.9035 2.80279 10.2999 2.99993C9.69462 3.19562 9.10606 3.43975 8.53994 3.72993C7.96932 4.0166 7.42404 4.35114 6.90993 4.72993C6.39292 5.10216 5.9079 5.51694 5.45993 5.96993C5.00971 6.42045 4.59513 6.90524 4.21993 7.41993C3.84474 7.93294 3.51038 8.4746 3.21993 9.03993C2.93646 9.60785 2.69579 10.1962 2.49993 10.7999C1.902 12.624 1.74773 14.5643 2.04993 16.4599C2.14903 17.0879 2.29954 17.7066 2.49993 18.3099C2.69569 18.8911 2.93642 19.4561 3.21993 19.9999C4.38797 22.2898 6.25002 24.1519 8.53994 25.3199C9.1063 25.6068 9.69487 25.8476 10.2999 26.0399C12.1203 26.6389 14.0577 26.7932 15.9499 26.4899L15.9999 26.5099ZM15.7999 25.4899C16.3788 25.3935 16.9502 25.2565 17.5099 25.0799C18.0667 24.8954 18.6083 24.6681 19.1299 24.3999C19.6504 24.1373 20.1487 23.833 20.6199 23.4899C21.1054 23.1637 21.5666 22.8028 21.9999 22.4099C22.4171 21.9999 22.7985 21.5549 23.1399 21.0799C23.4841 20.6039 23.7917 20.1025 24.0599 19.5799C24.3092 19.071 24.5166 18.5426 24.6799 17.9999C25.2296 16.3241 25.3702 14.5411 25.0899 12.7999C24.9983 12.2201 24.8612 11.6483 24.6799 11.0899C24.4995 10.522 24.272 9.97009 23.9999 9.43993C23.7363 8.91479 23.4285 8.41298 23.0799 7.93993C22.3881 6.9948 21.5551 6.16172 20.6099 5.46993C20.1389 5.12362 19.6406 4.81595 19.1199 4.54993C17.8121 3.88262 16.3854 3.47995 14.9217 3.36498C13.458 3.25001 11.9859 3.425 10.5899 3.87993C10.0321 4.05736 9.49015 4.28148 8.96993 4.54993C8.44736 4.81817 7.94592 5.12572 7.46993 5.46993C6.99494 5.81136 6.54999 6.19274 6.13993 6.60993C5.72833 7.02516 5.34733 7.46966 4.99993 7.93993C4.65491 8.41537 4.34732 8.91687 4.07993 9.43993C3.81749 9.95947 3.59356 10.4976 3.40993 11.0499C2.69571 13.2979 2.69571 15.712 3.40993 17.9599C3.59172 18.5162 3.81571 19.0578 4.07993 19.5799C4.35188 20.1004 4.65927 20.6016 4.99993 21.0799C5.69173 22.0251 6.52481 22.8581 7.46993 23.5499C7.9461 23.8909 8.44755 24.1951 8.96993 24.4599C9.48993 24.7316 10.0318 24.959 10.5899 25.1399C12.2677 25.6795 14.0483 25.8199 15.7899 25.5499" fill="#2BAAE2"/>
<path fill-rule="evenodd" clip-rule="evenodd" d="M98.86 10.8501C99.1575 10.8481 99.4518 10.9105 99.7228 11.0331C99.9938 11.1556 100.235 11.3354 100.43 11.5601C100.43 11.5601 100.85 8.83012 100.85 8.83012L100.45 8.61012C99.7887 8.27963 99.0593 8.1084 98.32 8.11012C97.047 8.11012 95.8261 8.61583 94.9259 9.51601C94.0257 10.4162 93.52 11.6371 93.52 12.9101C93.52 14.1832 94.0257 15.4041 94.9259 16.3042C95.8261 17.2044 97.047 17.7101 98.32 17.7101C99.2111 17.7128 100.085 17.4632 100.84 16.9901C100.84 16.9901 100.44 14.2501 100.43 14.2601C100.204 14.5202 99.9171 14.7196 99.5945 14.84C99.2719 14.9604 98.9243 14.9981 98.5834 14.9495C98.2425 14.9009 97.9192 14.7676 97.6431 14.5618C97.367 14.3561 97.1469 14.0844 97.0029 13.7716C96.8589 13.4588 96.7956 13.1149 96.8187 12.7714C96.8419 12.4278 96.9509 12.0955 97.1356 11.8049C97.3203 11.5144 97.575 11.2747 97.8762 11.1079C98.1774 10.9411 98.5157 10.8525 98.86 10.8501" fill="white"/>
<path fill-rule="evenodd" clip-rule="evenodd" d="M73.3999 20.8801H81.2199V18.0201H76.7899V15.8601H80.9699V13.1301H76.7899V10.9201H81.2199V8.12012H73.3999V20.8801Z" fill="white"/>
<path fill-rule="evenodd" clip-rule="evenodd" d="M67.35 14.1601C67.35 14.2401 67.35 14.3201 67.29 14.4201L67.18 14.9201C67.13 15.1901 67.04 15.6101 66.95 16.0301C66.95 15.8001 66.87 15.5601 66.83 15.3401C66.79 15.1201 66.74 14.9301 66.69 14.7301C66.64 14.5301 66.6 14.3501 66.54 14.1601L64.94 8.09009H62.14L60.53 14.2001C60.45 14.5001 60.37 14.8001 60.31 15.0401C60.25 15.2801 60.21 15.4801 60.18 15.6401C60.15 15.8001 60.11 15.9601 60.08 16.1101C60.08 15.8301 59.99 15.5601 59.94 15.3201L59.81 14.7001C59.81 14.5201 59.73 14.3601 59.69 14.2001L58.23 8.09009H54.71L58.32 20.8501H61.55L63.1 15.4101C63.1 15.3401 63.1 15.2601 63.17 15.1701L63.28 14.7201C63.34 14.4701 63.44 14.0801 63.53 13.7201C63.6 14.0301 63.68 14.3401 63.74 14.5801L63.87 15.1201C63.87 15.2501 63.93 15.3401 63.96 15.4301L65.53 20.8701H68.76L72.36 8.11009H68.85L67.35 14.1601Z" fill="white"/>
<path fill-rule="evenodd" clip-rule="evenodd" d="M54.1999 11.11C53.8977 10.6136 53.535 10.1567 53.1199 9.74997C52.6994 9.35635 52.2286 9.02009 51.7199 8.74997C51.2016 8.42873 50.6435 8.1766 50.0599 7.99997C49.4829 7.84435 48.8875 7.76699 48.2899 7.76997C47.0915 7.76099 45.9119 8.06797 44.8699 8.65997C43.8376 9.23631 42.9753 10.0744 42.3699 11.09C42.0713 11.5921 41.8458 12.1342 41.6999 12.7C41.543 13.2733 41.4656 13.8655 41.4699 14.46C41.4678 15.0503 41.5418 15.6385 41.6899 16.21C41.8412 16.7691 42.0701 17.3043 42.3699 17.8C42.6756 18.3084 43.0453 18.7756 43.4699 19.19C44.3117 20.0586 45.3723 20.6839 46.5399 21C47.11 21.1562 47.6988 21.2336 48.2899 21.23C48.8839 21.2283 49.4754 21.151 50.0499 21C51.2069 20.7018 52.2655 20.1052 53.1199 19.27C53.5402 18.8642 53.9035 18.4034 54.1999 17.9C54.4957 17.3987 54.7243 16.8608 54.8799 16.3C55.1801 15.1391 55.1801 13.9209 54.8799 12.76C54.7297 12.1957 54.5043 11.6542 54.2099 11.15L54.1999 11.11ZM53.3499 15.91C53.2331 16.348 53.0582 16.7684 52.8299 17.16C52.5973 17.5426 52.3185 17.8953 51.9999 18.21C51.6721 18.5403 51.3022 18.8261 50.8999 19.06C50.5098 19.2938 50.0891 19.4722 49.6499 19.59C49.2086 19.7018 48.7552 19.7589 48.2999 19.76C47.8476 19.7642 47.3968 19.707 46.9599 19.59C46.5225 19.4713 46.1024 19.2965 45.7099 19.07C45.309 18.83 44.9395 18.5411 44.6099 18.21C44.2843 17.8744 43.999 17.5018 43.7599 17.1C43.535 16.7067 43.3603 16.2867 43.2399 15.85C43.1275 15.4054 43.0704 14.9486 43.0699 14.49C43.0743 14.031 43.1348 13.5743 43.2499 13.13C43.3666 12.6856 43.5414 12.2586 43.7699 11.86C43.9975 11.4561 44.2803 11.0859 44.6099 10.76C44.9273 10.4333 45.2872 10.1507 45.6799 9.91997C46.0694 9.68747 46.4904 9.51233 46.9299 9.39997C47.3767 9.27998 47.8373 9.21946 48.2999 9.21997C48.7588 9.21603 49.2161 9.27319 49.6599 9.38997C50.0979 9.50675 50.5183 9.68164 50.9099 9.90997C51.7058 10.3724 52.3675 11.0341 52.8299 11.83C53.0616 12.2317 53.2398 12.662 53.3599 13.11C53.4718 13.5615 53.5289 14.0248 53.5299 14.49C53.5394 14.9557 53.4821 15.4204 53.3599 15.87" fill="white"/>
<path fill-rule="evenodd" clip-rule="evenodd" d="M39.71 9.62012C39.4558 9.27569 39.1406 8.98081 38.78 8.75012C38.5814 8.62507 38.3703 8.52117 38.15 8.44012C37.8085 8.30176 37.4475 8.21742 37.08 8.19012C36.2759 8.11055 35.4679 8.07716 34.66 8.09012H31V20.8501H34.26V16.6401H35.73C36.2544 16.6424 36.7785 16.6157 37.3 16.5601C37.6 16.5219 37.8951 16.4515 38.18 16.3501C38.3888 16.277 38.5898 16.1832 38.78 16.0701C39.0402 15.9114 39.2788 15.7198 39.49 15.5001C39.7098 15.2656 39.8981 15.0034 40.05 14.7201C40.2124 14.4036 40.3334 14.0675 40.41 13.7201C40.5032 13.3066 40.5502 12.884 40.55 12.4601C40.5515 11.9316 40.474 11.4057 40.32 10.9001C40.1851 10.4497 39.9718 10.0265 39.69 9.65012L39.71 9.62012ZM37.15 12.6501C37.1369 12.7415 37.1169 12.8318 37.09 12.9201L37 13.1301L36.87 13.3101C36.8238 13.3643 36.7699 13.4115 36.71 13.4501C36.6468 13.5036 36.576 13.5474 36.5 13.5801C36.4048 13.6313 36.3042 13.6715 36.2 13.7001C36.0391 13.7422 35.8753 13.7723 35.71 13.7901C35.49 13.7901 35.21 13.7901 34.92 13.7901H34.26V10.7901H35C35.27 10.7901 35.53 10.7901 35.74 10.7901C35.8953 10.804 36.0491 10.8308 36.2 10.8701C36.3001 10.8927 36.3973 10.9262 36.49 10.9701C36.5641 10.9983 36.6346 11.0353 36.7 11.0801L36.86 11.2001L36.98 11.3401L37.07 11.5101C37.1001 11.5754 37.1268 11.6421 37.15 11.7101C37.1564 11.79 37.1564 11.8703 37.15 11.9501C37.1606 12.0498 37.1606 12.1504 37.15 12.2501C37.15 12.3601 37.15 12.4701 37.15 12.5801" fill="white"/>
<path fill-rule="evenodd" clip-rule="evenodd" d="M106.26 8.11012C105.311 8.11012 104.383 8.39163 103.593 8.91906C102.804 9.4465 102.189 10.1962 101.825 11.0732C101.462 11.9503 101.367 12.9154 101.552 13.8466C101.737 14.7777 102.195 15.6329 102.866 16.3042C103.537 16.9755 104.392 17.4327 105.324 17.6179C106.255 17.8031 107.22 17.708 108.097 17.3447C108.974 16.9814 109.724 16.3662 110.251 15.5769C110.778 14.7875 111.06 13.8595 111.06 12.9101C111.061 12.2794 110.938 11.6546 110.697 11.0717C110.457 10.4887 110.103 9.95905 109.657 9.51307C109.211 9.06708 108.681 8.71357 108.098 8.47281C107.515 8.23206 106.891 8.1088 106.26 8.11012V8.11012ZM106.26 14.1801C106.009 14.1801 105.763 14.1056 105.554 13.9661C105.346 13.8265 105.183 13.6282 105.087 13.3961C104.991 13.1641 104.965 12.9087 105.014 12.6624C105.063 12.416 105.184 12.1897 105.362 12.0121C105.54 11.8345 105.766 11.7135 106.012 11.6645C106.259 11.6155 106.514 11.6407 106.746 11.7368C106.978 11.8329 107.176 11.9957 107.316 12.2045C107.455 12.4134 107.53 12.6589 107.53 12.9101C107.53 13.2469 107.396 13.57 107.158 13.8081C106.92 14.0463 106.597 14.1801 106.26 14.1801" fill="white"/>
<path fill-rule="evenodd" clip-rule="evenodd" d="M90.66 15.3699C90.9455 15.2299 91.2085 15.0479 91.44 14.8299C91.6616 14.6268 91.8505 14.3907 92 14.1299C92.1676 13.8441 92.2891 13.5336 92.36 13.2099C92.4565 12.831 92.5002 12.4407 92.49 12.0499C92.4896 11.6308 92.4324 11.2137 92.32 10.8099C92.2111 10.4525 92.0457 10.1149 91.83 9.80989C91.6213 9.49808 91.3608 9.22415 91.06 8.99989C90.9085 8.87616 90.7442 8.76889 90.57 8.67989C90.3715 8.57767 90.1639 8.49398 89.95 8.42989C89.627 8.31743 89.2909 8.24685 88.95 8.21989C88.38 8.15989 87.51 8.13989 86.67 8.13989H83V20.8499H86.27V15.8499L89.2 20.8499H93.12L89.64 15.7099C89.9865 15.6396 90.3225 15.5254 90.64 15.3699H90.66ZM89.03 12.6399C89.018 12.7315 88.998 12.8218 88.97 12.9099L88.88 13.1299C88.8423 13.1907 88.7988 13.2476 88.75 13.2999C88.7104 13.3593 88.6594 13.4103 88.6 13.4499C88.5317 13.5012 88.4579 13.5448 88.38 13.5799L88.08 13.6999L87.59 13.7899C87.37 13.7899 87.09 13.7899 86.8 13.7899H86.14V10.7899H86.84C87.11 10.7899 87.37 10.7899 87.58 10.7899C87.7353 10.8038 87.8891 10.8306 88.04 10.8699C88.1401 10.8924 88.2373 10.926 88.33 10.9699C88.4041 10.9981 88.4746 11.035 88.54 11.0799L88.7 11.1999L88.82 11.3399C88.8559 11.3932 88.8861 11.4502 88.91 11.5099C88.9427 11.5705 88.9695 11.6342 88.99 11.6999C88.9972 11.7831 88.9972 11.8667 88.99 11.9499C89.0006 12.0496 89.0006 12.1502 88.99 12.2499C88.99 12.3499 88.99 12.4699 88.99 12.5699" fill="white"/>
</svg>
