<svg width="127" height="48" viewBox="0 0 127 48" fill="none" xmlns="http://www.w3.org/2000/svg">
<path d="M27.1043 5.2749C27.6007 5.2749 28.5941 6.48819 28.5059 7.56902C28.4106 8.71064 27.6275 9.72013 26.9846 9.72013C26.6871 9.72013 25.5367 9.77516 19.1524 9.77516C18.6077 14.3376 15.7355 38.6619 15.6372 39.1663C15.5369 40.0657 13.8054 41.082 10.9831 41.1398C8.85377 41.1955 6.33069 40.35 6.47758 39.3929C6.57585 38.6619 9.54701 14.6202 10.1916 9.77516H1.74164C1.14869 9.77516 0 8.89236 0 7.58328C0 6.39343 0.909894 5.2749 1.50117 5.2749H27.1043Z" fill="#3E634C"/>
<path d="M74.7871 13.4307H60.5567C51.9533 13.4307 45.4296 15.51 44.024 24.6613C42.6167 33.7574 47.0038 37.3497 54.6524 37.3497H61.6243L62.349 33.4183H57.1274C54.2589 33.4183 52.3468 31.2326 53.3592 24.7717C54.3705 18.3731 57.4076 17.9226 58.6463 17.9226H68.488C67.1398 27.245 66.1817 33.4183 66.1817 33.4183H66.1735L65.4845 37.3497H65.5062C64.7171 42.0114 62.5821 43.413 60.7826 43.413H46.33C46.33 43.413 46.1067 43.413 45.8248 43.5834C45.2637 44.256 44.978 45.1529 44.978 46.0522C44.978 46.5007 45.0357 46.9508 45.1483 47.3437C55.6088 47.3976 62.9739 47.3976 62.9739 47.3976C70.3428 47.3976 73.9983 42.4578 74.7871 37.3497C75.179 34.9361 77.5979 18.7637 77.8225 17.3628C78.2161 14.9471 77.316 13.4307 74.7871 13.4307Z" fill="#3E634C"/>
<path d="M37.3254 41.0079C37.3254 41.0079 37.2721 41.2638 37.1641 41.329C35.9242 41.9015 34.5196 42.223 32.8471 42.223C31.2275 42.223 29.7689 41.9015 28.5807 41.329C28.527 41.329 28.4197 41.1985 28.4197 41.0732C31.8205 14.1247 31.8205 13.999 31.8205 13.999C31.8205 13.999 31.8744 13.8056 31.9835 13.7428C33.2237 13.1015 34.6826 12.7808 36.3005 12.7808C37.9744 12.7808 39.3793 13.1015 40.6192 13.7428C40.7286 13.8056 40.7286 13.999 40.7286 13.999C40.7286 14.0625 37.6518 38.3184 37.3254 41.0079Z" fill="#3E634C"/>
<path fill-rule="evenodd" clip-rule="evenodd" d="M97.9103 42.4895C105.136 42.4895 116.066 42.1732 118.041 28.5246C119.957 14.8767 112.298 13.4893 101.493 13.4893C89.3251 13.4893 82.6555 15.32 81.2358 26.505C79.5686 39.5838 84.1361 42.4895 97.9103 42.4895ZM97.9103 37.7513C92.6588 37.7513 90.0042 36.4261 91.488 26.8834C92.6588 19.3642 95.7474 18.2264 100.75 18.2264C105.998 18.2264 109.46 20.0579 108.223 27.5771C106.556 37.6239 103.592 37.7513 97.9103 37.7513Z" fill="#3E634C"/>
<path d="M33.0253 8.33228C33.0253 8.33228 30.3493 -1.00454 45.9269 0.0890833C45.9269 0.0890833 42.807 1.27413 41.5116 7.83553C41.5116 7.83553 39.3532 14.0566 33.7438 10.3308C33.7438 10.3308 33.2359 9.21073 33.0253 8.33228Z" fill="#55B947"/>
<path d="M44.8604 0.0517578C44.8604 0.0517578 39.7129 2.02149 37.2854 3.99018C37.2854 3.99018 37.0111 2.03739 38.9739 0.363459L38.4317 0.4889C38.4317 0.4889 36.7059 1.79687 36.9191 4.25109C36.9191 4.25109 33.1341 7.29795 33.7878 10.3791L34.1528 10.6044C34.1528 10.6044 33.2741 8.17085 36.2496 5.33928C36.2496 5.33928 38.3719 7.76239 41.2396 6.95722L41.3349 6.5771C41.3349 6.5771 38.6952 7.45034 36.5192 5.07388C36.5192 5.07388 38.983 2.78727 44.9034 0.348945L45.3523 0.0825132L44.8604 0.0517578Z" fill="white"/>
<path fill-rule="evenodd" clip-rule="evenodd" d="M123.452 14.8834C124.402 14.8834 125.212 14.5477 125.881 13.8758C126.551 13.2042 126.886 12.3943 126.886 11.4458C126.886 10.5005 126.551 9.69503 125.881 9.02952C125.212 8.36401 124.402 8.03125 123.452 8.03125C122.508 8.03125 121.703 8.36401 121.036 9.02952C120.366 9.69792 120.031 10.5033 120.031 11.4458C120.031 12.3972 120.363 13.2074 121.027 13.8758C121.693 14.5477 122.502 14.8834 123.452 14.8834ZM121.368 9.36516C120.795 9.94051 120.508 10.6355 120.508 11.4503C120.508 12.2714 120.793 12.9709 121.363 13.5495C121.936 14.1277 122.632 14.4172 123.452 14.4172C124.271 14.4172 124.967 14.1277 125.54 13.5495C126.113 12.9709 126.4 12.2714 126.4 11.4503C126.4 10.6355 126.113 9.94051 125.54 9.36516C124.964 8.78693 124.268 8.49749 123.452 8.49749C122.638 8.49749 121.944 8.78693 121.368 9.36516ZM124.414 9.69182C124.196 9.60165 123.853 9.55641 123.386 9.55641H122.069V13.3162H122.732V11.8376H123.255C123.607 11.8376 123.853 11.8777 123.993 11.9585C124.23 12.0978 124.349 12.3847 124.349 12.8188V13.1163L124.362 13.2369C124.366 13.2527 124.369 13.2665 124.372 13.279C124.375 13.2915 124.378 13.3037 124.381 13.3162H125.003L124.979 13.2697C124.964 13.2385 124.953 13.1734 124.946 13.0739C124.941 12.9745 124.937 12.8814 124.937 12.7944V12.5195C124.937 12.3298 124.869 12.136 124.733 11.937C124.596 11.7381 124.381 11.6155 124.086 11.569C124.319 11.5315 124.5 11.4708 124.631 11.3867C124.876 11.2279 124.998 10.9805 124.998 10.6445C124.998 10.1712 124.803 9.85387 124.414 9.69182ZM124.103 10.1488C123.936 10.0557 123.668 10.0088 123.299 10.0088H122.732V11.371H123.332C123.613 11.371 123.824 11.3431 123.965 11.2869C124.224 11.1846 124.353 10.9885 124.353 10.6994C124.353 10.4257 124.27 10.2421 124.103 10.1488Z" fill="#3E634C"/>
</svg>
